<svg xmlns="http://www.w3.org/2000/svg" viewBox="0 0 120 40" width="240" height="80">
  <!-- Icon box -->
  <rect x="0" y="4" width="32" height="32" rx="7" fill="#14b8a6"/>
  <g stroke="#ffffff" stroke-width="1.6" stroke-linecap="round" stroke-linejoin="round" fill="none">
    <path d="M12 12c-2.2 0-4 1.8-4 4 0 1.1.4 2.1 1.1 2.8C8.4 19.4 8 20.2 8 21c0 1.7 1.3 3 3 3 .3 0 .7-.1 1-.2V26h8v-2.2c.3.1.6.2 1 .2 1.7 0 3-1.3 3-3 0-.8-.4-1.6-1.1-2.2.7-.7 1.1-1.7 1.1-2.8 0-2.2-1.8-4-4-4-.8 0-1.5.2-2.1.6C17.4 12.2 16.7 12 16 12c-.7 0-1.4.2-2 .6C13.5 12.2 12.8 12 12 12z"/>
    <line x1="16" y1="14" x2="16" y2="26"/>
    <line x1="13" y1="18" x2="19" y2="18"/>
    <circle cx="13" cy="18" r="1" fill="#ffffff" stroke="none"/>
    <circle cx="19" cy="18" r="1" fill="#ffffff" stroke="none"/>
    <circle cx="16" cy="14" r="1" fill="#ffffff" stroke="none"/>
  </g>
  <!-- Text -->
  <text x="40" y="16" font-family="Georgia, serif" font-size="11" font-weight="700" fill="#14b8a6">SequenceLab</text>
  <text x="40" y="30" font-family="Georgia, serif" font-size="11" font-weight="700" fill="#ffffff">AI</text>
</svg>
