<svg xmlns="http://www.w3.org/2000/svg" viewBox="0 0 320 64" width="320" height="64">
  <!-- Icon background -->
  <rect x="0" y="0" width="64" height="64" rx="14" fill="#14b8a6"/>

  <!-- Exact Lucide BrainCircuit icon, scaled to fit, white stroke -->
  <g transform="translate(10, 10) scale(1.833)" stroke="#ffffff" stroke-width="1.5" stroke-linecap="round" stroke-linejoin="round" fill="none">
    <path d="M12 5a3 3 0 1 0-5.997.125 4 4 0 0 0-2.526 5.77 4 4 0 0 0 .556 6.588A4 4 0 1 0 12 18Z"/>
    <path d="M12 5a3 3 0 1 1 5.997.125 4 4 0 0 1 2.526 5.77 4 4 0 0 1-.556 6.588A4 4 0 1 1 12 18Z"/>
    <path d="M15 13a4.5 4.5 0 0 1-3-4 4.5 4.5 0 0 1-3 4"/>
    <path d="M17.599 6.5a3 3 0 0 0 .399-1.375"/>
    <path d="M6.003 5.125A3 3 0 0 0 6.401 6.5"/>
    <path d="M3.477 10.896a4 4 0 0 1 .585-.396"/>
    <path d="M19.938 10.5a4 4 0 0 1 .585.396"/>
    <path d="M6 18a4 4 0 0 1-1.967-.516"/>
    <path d="M19.967 17.484A4 4 0 0 1 18 18"/>
    <line x1="12" y1="13" x2="12" y2="22"/>
    <line x1="12" y1="22" x2="15.5" y2="17"/>
    <line x1="12" y1="22" x2="8.5" y2="17"/>
  </g>

  <!-- "SequenceLab AI" — single line -->
  <text x="80" y="40" font-family="Georgia, 'Times New Roman', serif" font-size="26" font-weight="700" fill="#f8fafc" letter-spacing="0.5">SequenceLab AI</text>
</svg>
