<svg xmlns="http://www.w3.org/2000/svg" viewBox="0 0 32 32" width="32" height="32">
  <rect width="32" height="32" rx="7" fill="#14b8a6"/>
  <g stroke="#ffffff" stroke-width="1.6" stroke-linecap="round" stroke-linejoin="round" fill="none">
    <!-- Brain outline -->
    <path d="M12 8c-2.2 0-4 1.8-4 4 0 1.1.4 2.1 1.1 2.8C8.4 15.4 8 16.2 8 17c0 1.7 1.3 3 3 3 .3 0 .7-.1 1-.2V22h8v-2.2c.3.1.6.2 1 .2 1.7 0 3-1.3 3-3 0-.8-.4-1.6-1.1-2.2.7-.7 1.1-1.7 1.1-2.8 0-2.2-1.8-4-4-4-.8 0-1.5.2-2.1.6C17.4 8.2 16.7 8 16 8c-.7 0-1.4.2-2 .6C13.5 8.2 12.8 8 12 8z"/>
    <!-- Circuit lines -->
    <line x1="16" y1="10" x2="16" y2="22"/>
    <line x1="13" y1="14" x2="19" y2="14"/>
    <circle cx="13" cy="14" r="1" fill="#ffffff" stroke="none"/>
    <circle cx="19" cy="14" r="1" fill="#ffffff" stroke="none"/>
    <circle cx="16" cy="10" r="1" fill="#ffffff" stroke="none"/>
  </g>
</svg>
